<svg xmlns="http://www.w3.org/2000/svg" viewBox="-4316.76 1125.745 27.76 27.255">
  <g id="icon-2" transform="translate(-4316.76 1125.245)">
    <path id="Path_1574" data-name="Path 1574" d="M24.732,4.538V.5H0V24.222H3.533v3.533H27.76V4.538ZM1.009,23.213V1.509H23.722V4.538H3.533V23.213Zm25.741,3.533H4.543V5.547H26.751Z"/>
    <path id="Path_1575" data-name="Path 1575" d="M30.609,25.052H25.561V20a.5.5,0,0,0-1.009,0v5.047H19.5a.5.5,0,0,0,0,1.009h5.047v5.047a.5.5,0,1,0,1.009,0V26.061h5.047a.5.5,0,1,0,0-1.009Z" transform="translate(-9.41 -9.41)"/>
  </g>
</svg>
